<svg width="1600" height="1403" viewBox="0 0 1600 1403" fill="none" xmlns="http://www.w3.org/2000/svg">
<path d="M1052.45 1053.63C995.346 1030.46 934.051 1006.9 877.267 1034.83C836.558 1054.83 816.769 1094.66 796.266 1130.45C747.121 1216.01 659.234 1302.57 550.502 1307.17C483.285 1310.03 424.439 1280.36 371.366 1250.05C271.437 1193.23 174.045 1127.84 120.58 1036.45C47.2188 911.017 132.223 554.433 385.469 624.703C463.314 646.252 525.559 717.721 608.746 695.431C638.555 687.443 663.797 667.958 683.851 647.136C728.326 600.99 754.685 545.461 794.709 496.57C834.733 447.679 896.743 403.196 963.558 404.376C1048.22 405.62 1105.27 478.482 1190.05 478.786C1280.49 479.392 1347.87 402.269 1408.61 340.558C1549.25 197.158 1771.13 90.7542 1973.52 123.76C2071.82 139.83 2155.56 186.152 2234.8 233.682C2274.2 257.352 2313.91 282.153 2339.54 316.785C2408.53 410.677 2346.22 552.476 2231.8 627.359C2117.65 701.867 1968.66 721.192 1832.31 715.622C1729.73 711.302 1614.08 698.37 1529.7 756.42C1417.69 833.383 1429.24 992.951 1309.24 1060.85C1241.87 1099.2 1154.65 1092.58 1086.55 1067.21C1075.38 1062.93 1064.12 1058.37 1052.45 1053.63Z" fill="#EEF4FA"/>
<rect x="1280.08" y="423.083" width="168" height="168" rx="84" transform="rotate(90 1280.08 423.083)" fill="#FFEE59"/>
<path d="M1201.81 470.62L1189.61 486.455C1188.76 487.554 1187.44 488.168 1186.04 488.098L1165.17 487.149C1161.55 486.989 1159.42 491.108 1161.63 493.97L1173.45 509.09C1174.38 510.283 1174.61 511.892 1174.05 513.282L1166.31 532.345C1164.95 535.679 1168.16 539.095 1171.61 537.975L1192.78 531.11C1194.06 530.689 1195.46 530.91 1196.56 531.68L1216.56 545.674C1219.63 547.825 1223.78 545.298 1223.21 541.595L1219.88 519.991C1219.68 518.665 1220.11 517.331 1221.06 516.392L1234.99 502.412C1237.49 499.918 1235.98 495.649 1232.45 495.222L1216.56 493.246C1214.73 493.013 1213.26 491.648 1212.89 489.85L1209.37 472.393C1208.65 468.818 1204.03 467.723 1201.79 470.613L1201.81 470.62Z" fill="#EEA519"/>
</svg>
