<svg width="1620" height="1403" viewBox="0 0 1620 1403" fill="none" xmlns="http://www.w3.org/2000/svg">
<path d="M1052.45 1053.56C995.346 1030.39 934.051 1006.83 877.267 1034.76C836.558 1054.76 816.769 1094.59 796.266 1130.38C747.121 1215.94 659.234 1302.5 550.502 1307.1C483.285 1309.96 424.439 1280.29 371.366 1249.99C271.437 1193.16 174.045 1127.77 120.58 1036.38C47.2188 910.948 132.223 554.364 385.469 624.634C463.314 646.183 525.559 717.651 608.746 695.361C638.555 687.374 663.797 667.888 683.852 647.066C728.327 600.92 754.685 545.392 794.709 496.501C834.734 447.609 896.743 403.126 963.558 404.307C1048.22 405.551 1105.27 478.413 1190.05 478.716C1280.49 479.322 1347.87 402.2 1408.61 340.489C1549.25 197.089 1771.13 90.6848 1973.52 123.691C2071.82 139.76 2155.56 186.083 2234.8 233.612C2274.2 257.283 2313.91 282.083 2339.54 316.715C2408.53 410.608 2346.22 552.406 2231.8 627.29C2117.65 701.797 1968.66 721.123 1832.31 715.553C1729.73 711.233 1614.08 698.301 1529.7 756.351C1417.69 833.313 1429.24 992.882 1309.24 1060.78C1241.87 1099.13 1154.65 1092.51 1086.55 1067.14C1075.38 1062.86 1064.12 1058.3 1052.45 1053.56Z" fill="#EEF4FA"/>
<rect x="1445" y="331.001" width="168" height="168" rx="84" transform="rotate(90 1445 331.001)" fill="#FFEE59"/>
<path d="M1383.31 389.519C1384.61 388.983 1386.43 388.531 1387.49 389.792C1388.42 390.912 1387.75 393.38 1387.31 395.023C1386.58 397.742 1372.89 441.547 1368.72 455.555C1367.86 458.409 1365.75 463.655 1364.15 463.957C1361.78 464.42 1360.64 462.093 1359.64 459.624C1356.56 451.986 1351.1 432.961 1349.2 426.402C1348.75 424.873 1348.7 421.789 1346.71 422.162C1341.66 423.11 1333.81 426.15 1330.48 426.991C1328.05 427.61 1326.59 426.419 1326.02 422.752C1324.59 413.47 1322.17 397.202 1322.21 391.972C1322.29 384.966 1321.17 384.677 1327.34 381.98C1338.57 377.099 1349.16 372.979 1360.99 369.578C1366.72 367.93 1367.62 368.881 1366.38 374.904C1365.13 380.966 1363.67 386.99 1362.44 393.06C1362.08 394.817 1361.37 397.785 1363.5 397.101L1383.32 389.498L1383.31 389.519Z" fill="#EEA519"/>
</svg>
