<svg width="816" height="599" viewBox="0 0 816 599" fill="none" xmlns="http://www.w3.org/2000/svg">
<path d="M482.276 464.749C459.422 435.422 434.497 404.627 396.396 402.091C369.091 400.255 346.733 415.093 325.224 427.6C273.732 457.468 201.695 476.168 143.486 445.772C107.495 426.993 85.6922 393.746 67.0991 361.907C32.0189 302.081 0.84543 238.552 0.472328 174.689C-0.0283618 87.0407 151.954 -73.5734 263.101 39.5205C297.282 74.2575 308.252 130.363 358.449 143.813C376.436 148.633 395.504 146.069 412.265 141.242C449.427 130.554 479.951 109.501 515.615 96.0365C551.279 82.5721 597.102 78.0418 631.663 98.8126C675.532 125.001 683.364 180.266 727.58 205.999C774.658 233.595 833.134 213.637 883.489 199.724C1000.24 167.244 1148.29 178.595 1244.1 256.886C1290.62 294.93 1320.41 344.385 1347.48 393.112C1360.94 417.362 1374.21 442.294 1377.15 468.113C1384.89 537.968 1309.55 593.238 1227.17 597.839C1145.04 602.325 1061.35 567.476 991.776 523.438C939.474 490.24 882.934 448.598 821.328 453.467C739.581 459.882 697.484 546.713 614.29 545.98C567.517 545.688 523.933 515.923 496 482.129C491.45 476.525 486.944 470.75 482.276 464.749Z" fill="#EFF6FD"/>
</svg>
