<svg width="24" height="24" viewBox="0 0 24 24" fill="none" xmlns="http://www.w3.org/2000/svg">
<path d="M4.60925 12.8232L16.0786 12.8232L11.0678 17.834C10.6674 18.2344 10.6674 18.8916 11.0678 19.292C11.1628 19.3872 11.2756 19.4627 11.3998 19.5142C11.5241 19.5658 11.6572 19.5923 11.7917 19.5923C11.9262 19.5923 12.0593 19.5658 12.1835 19.5142C12.3078 19.4627 12.4206 19.3872 12.5156 19.292L19.2822 12.5254C19.3774 12.4304 19.4529 12.3176 19.5044 12.1934C19.5559 12.0692 19.5825 11.936 19.5825 11.8015C19.5825 11.667 19.5559 11.5339 19.5044 11.4097C19.4529 11.2855 19.3774 11.1726 19.2822 11.0776L12.5156 4.31104C12.4205 4.21598 12.3077 4.14057 12.1835 4.08913C12.0593 4.03768 11.9261 4.0112 11.7917 4.0112C11.6573 4.0112 11.5241 4.03768 11.3999 4.08913C11.2757 4.14057 11.1629 4.21598 11.0678 4.31104C10.9727 4.40611 10.8973 4.51896 10.8459 4.64317C10.7944 4.76737 10.768 4.9005 10.768 5.03494C10.768 5.16937 10.7944 5.3025 10.8459 5.4267C10.8973 5.55091 10.9727 5.66376 11.0678 5.75883L16.0786 10.7696L4.60925 10.7696C4.04452 10.7696 3.58246 11.2317 3.58246 11.7964C3.58246 12.3611 4.04452 12.8232 4.60925 12.8232Z" fill="white"/>
</svg>
