<svg width="196" height="197" viewBox="0 0 196 197" fill="none" xmlns="http://www.w3.org/2000/svg">
<path d="M52.1065 47.017C44.5418 40.4173 41.6337 27.8785 42.4893 21.7006C43.9193 11.5697 50.9056 0.455263 62.8356 0.0111923C67.1069 -0.149674 71.2802 1.42607 74.8901 4.57546C80.9373 9.85119 84.9691 19.1997 84.9063 27.8104C84.836 41.3951 78.2352 48.9586 64.7428 50.9146C60.1823 51.5925 55.8084 50.2466 52.0835 46.9969L52.1065 47.017Z" fill="#E3ECF4"/>
<path d="M150.166 134.108C148.442 132.603 146.941 130.889 145.729 128.982C143.094 124.901 142.376 120.387 143.739 115.948C145.714 109.37 152.208 103.414 159.881 101.119C170.162 98.0621 179.004 99.9041 186.89 106.785C188.799 108.45 190.665 110.442 192.462 112.698C195.801 116.947 196.809 121.593 195.348 126.19C192.756 134.497 183.067 140.216 177.074 141.143C169.712 142.293 158.257 141.126 150.186 134.085L150.166 134.108Z" fill="#E3ECF4"/>
<path d="M135.741 86.7363C132.43 83.8477 130.515 79.8694 130.222 75.2401C129.697 66.8857 134.418 57.7634 139.315 53.7757C147.984 46.7203 162.936 42.0701 175.298 48.6029C176.688 49.33 177.958 50.1951 179.085 51.178C182.442 54.1067 184.552 58.0934 185.124 62.6821C186.015 69.7358 183.198 77.9284 177.961 83.6043C168.253 94.1254 156.196 96.2 141.131 89.9809C139.083 89.1255 137.255 88.0172 135.761 86.7133L135.741 86.7363Z" fill="#E3ECF4"/>
<path d="M98.4875 53.2234C89.9801 45.8013 90.3784 30.6805 93.3444 22.7804C94.2939 20.2074 97.1786 13.6537 102.892 8.31295C108.363 3.20507 114.681 1.02363 121.19 1.96472C126.562 2.72367 130.971 4.58611 134.305 7.49479C140.444 12.8508 142.563 21.4212 140.229 31.6136C137.467 43.7813 124.899 60.2707 106.709 57.0754C103.556 56.5114 100.787 55.2294 98.4875 53.2234Z" fill="#E3ECF4"/>
<path d="M126.944 94.4487C123.32 85.0509 107.033 67.2378 81.7729 64.3938C48.9501 60.7019 17.5363 73.2621 4.726 93.1846C-8.12735 113.11 7.93342 135.544 20.8096 142.648C33.7088 149.771 38.1063 153.689 42.2672 167.158C46.4282 180.628 63.7088 198.741 77.6175 196.865C91.5263 194.989 116.767 189.92 128.854 145.395C136.098 118.672 130.568 103.847 126.944 94.4487Z" fill="#E3ECF4"/>
</svg>
