<svg width="16" height="16" viewBox="0 0 16 16" fill="none" xmlns="http://www.w3.org/2000/svg">
<path d="M9.15269 13.702C9.86551 13.9972 10.6021 14.226 11.353 14.3865C12.7932 14.6943 14 13.4723 14 11.9995V11.0405C14 10.4287 13.5836 9.8954 12.9901 9.74701L10.6221 9.15501C10.3061 9.07602 10 9.31499 10 9.64068C10 10.0083 9.61768 10.2482 9.30007 10.0631C8.60801 9.65972 7.96923 9.16805 7.40035 8.59916C6.83147 8.03028 6.33979 7.3915 5.93641 6.69944C5.75129 6.38182 5.99119 5.9995 6.35883 5.9995C6.68452 5.9995 6.92349 5.69342 6.8445 5.37745L6.2525 3.00945C6.10411 2.41589 5.5708 1.9995 4.95898 1.9995H4.00001C2.52725 1.9995 1.30525 3.20628 1.61302 4.64652C1.77348 5.39744 2.00228 6.134 2.29754 6.84682C2.9341 8.38361 3.86712 9.77997 5.04333 10.9562C6.21954 12.1324 7.6159 13.0654 9.15269 13.702Z" fill="#1084FD"/>
<path fill-rule="evenodd" clip-rule="evenodd" d="M8.21879 4.6072C8.31409 4.25155 8.67965 4.0405 9.03529 4.13579C9.71351 4.31752 10.3319 4.67458 10.8284 5.17107C11.3249 5.66756 11.682 6.286 11.8637 6.96422C11.959 7.31987 11.748 7.68542 11.3923 7.78072C11.0367 7.87601 10.6711 7.66496 10.5758 7.30931C10.4547 6.85717 10.2166 6.44487 9.88563 6.11388C9.55464 5.78288 9.14234 5.54485 8.6902 5.42369C8.33455 5.3284 8.1235 4.96284 8.21879 4.6072Z" fill="#1084FD"/>
<path fill-rule="evenodd" clip-rule="evenodd" d="M8.90898 2.0314C9.00427 1.67575 9.36983 1.4647 9.72547 1.55999C10.8558 1.86287 11.8866 2.45796 12.7141 3.28545C13.5415 4.11294 14.1366 5.14367 14.4395 6.27404C14.5348 6.62968 14.3238 6.99524 13.9681 7.09053C13.6125 7.18583 13.2469 6.97477 13.1516 6.61913C12.9093 5.71483 12.4332 4.89025 11.7713 4.22826C11.1093 3.56627 10.2847 3.0902 9.38038 2.84789C9.02474 2.7526 8.81368 2.38704 8.90898 2.0314Z" fill="#1084FD"/>
</svg>
