<svg width="16" height="16" viewBox="0 0 16 16" fill="none" xmlns="http://www.w3.org/2000/svg">
<path d="M14.6654 5.73948V11.1675C14.6654 11.7209 14.4537 12.2534 14.0736 12.6556C13.6935 13.0579 13.1739 13.2995 12.6214 13.3308L12.4987 13.3341H3.4987C2.94527 13.3342 2.41281 13.1224 2.01054 12.7424C1.60828 12.3623 1.3667 11.8427 1.33536 11.2901L1.33203 11.1675V5.73948L7.7667 9.11015C7.83828 9.14764 7.91789 9.16723 7.9987 9.16723C8.07951 9.16723 8.15911 9.14764 8.2307 9.11015L14.6654 5.73948ZM3.4987 2.66748H12.4987C13.0358 2.66742 13.5537 2.86681 13.9521 3.22699C14.3504 3.58717 14.6008 4.08247 14.6547 4.61681L7.9987 8.10348L1.3427 4.61681C1.39438 4.10369 1.6274 3.62583 1.99986 3.26912C2.37233 2.91242 2.85982 2.70027 3.3747 2.67081L3.4987 2.66748Z" fill="#1084FD"/>
</svg>
