<svg width="135" height="30" viewBox="0 0 135 30" fill="none" xmlns="http://www.w3.org/2000/svg">
<path d="M61.9168 1.72815C61.9168 1.7585 62.2048 9.27102 62.6392 12.4703C64.4985 12.1926 66.4641 11.6796 68.3403 11.3988C68.348 13.0941 68.7423 15.149 68.75 16.8048C65.1131 17.4437 61.0619 18.7596 57.4758 19.8386C56.4021 14.9881 54.0653 3.57365 54.0576 3.5433C55.4024 3.17754 56.1926 2.88614 57.9086 2.49154C59.1826 2.19863 60.9694 1.87233 61.9168 1.72967V1.72815Z" fill="white"/>
<path d="M106.276 6.96112C106.096 5.76822 105.614 4.69977 104.887 3.7406C104.022 2.5993 102.889 1.78734 101.609 1.18482C99.7955 0.331884 97.8484 0.0298653 95.8767 -0.000488281C95.7935 -0.000488281 95.7242 -0.000488281 95.6579 -0.000488281C95.621 -0.000488281 95.5855 -0.000488281 95.5486 0.0010294C93.6924 0.0738781 92.5617 0.623279 90.9581 1.58245C89.2052 2.63117 87.9066 4.06234 87.2026 5.99739C86.742 7.2601 86.6311 8.55923 86.8776 9.87354C87.2196 11.6963 88.113 13.2382 89.4239 14.5359C90.5253 15.6271 91.8239 16.4299 93.2765 16.9672C94.9339 17.5788 96.0261 17.7184 97.7945 17.5242C98.7942 17.4149 99.757 17.1721 100.67 16.7684C102.527 15.9458 104.018 14.6907 105.053 12.9332C106.125 11.112 106.592 9.06614 106.274 6.96263L106.276 6.96112ZM101.632 11.6523C101.425 12.0969 101.162 12.5082 100.838 12.8786C100.013 13.821 98.9868 14.4494 97.7436 14.6785C95.8058 15.0352 94.1098 14.5313 92.7173 13.1502C91.716 12.1577 91.1815 10.9359 91.1584 9.53358C91.1245 7.56667 91.9502 6.00801 93.5892 4.88493C94.3994 4.32946 95.3144 4.03806 96.3003 3.97432C96.3419 3.97128 96.3819 3.96218 96.4235 3.95611C96.4651 3.96369 96.5067 3.9728 96.5483 3.98039C96.7763 4.15189 96.7732 4.3416 96.5344 4.50702C95.8397 4.99268 95.3237 5.61645 95.0171 6.40109C94.3809 8.02501 94.8431 9.85533 96.1832 10.9936C96.6761 11.4125 97.2415 11.7039 97.8777 11.8572C99.0576 12.1394 100.159 11.9604 101.182 11.3184C101.274 11.2607 101.368 11.2197 101.481 11.2577C101.644 11.3138 101.709 11.4823 101.63 11.6507L101.632 11.6523Z" fill="white"/>
<path d="M120.234 13.1441C120.092 13.9303 119.942 14.7058 119.787 15.4723C119.631 16.2387 119.465 17.0066 119.289 17.7807L113.208 16.609C113.642 15.4146 114.047 14.2171 114.423 13.0167C114.801 11.8162 115.101 10.5899 115.327 9.3378C115.344 9.24674 115.366 9.10104 115.395 8.89768C115.424 8.69431 115.452 8.46514 115.477 8.20713C115.501 7.94913 115.518 7.68353 115.528 7.40883C115.537 7.13413 115.528 6.87916 115.501 6.64544C115.474 6.41171 115.426 6.21442 115.357 6.05506C115.287 5.8957 115.186 5.80464 115.052 5.78036C114.811 5.73786 114.596 5.77277 114.405 5.88204C114.214 5.99283 114.044 6.14764 113.895 6.34645C113.745 6.54679 113.614 6.77596 113.502 7.037C113.39 7.29652 113.293 7.5606 113.212 7.82619C113.132 8.09179 113.065 8.34372 113.011 8.582C112.957 8.82027 112.917 9.01606 112.889 9.16934C112.632 10.3941 112.382 11.6128 112.143 12.8224C111.903 14.032 111.694 15.0018 111.435 16.2326L105.991 15.5163C106.575 13.085 107.111 10.9192 107.679 8.51522C108.248 6.1097 108.791 3.68748 109.312 1.24401L114.357 1.86929L114.013 3.53116C114.254 3.3293 114.508 3.14415 114.774 2.97568C115.041 2.80722 115.32 2.67063 115.608 2.56743C115.896 2.46423 116.195 2.39441 116.503 2.35799C116.811 2.32308 117.128 2.33219 117.453 2.38986C118.054 2.49458 118.562 2.68429 118.978 2.95899C119.394 3.23217 119.736 3.56454 119.999 3.95611C120.264 4.34615 120.465 4.78931 120.602 5.28256C120.739 5.77732 120.827 6.29333 120.868 6.83059C120.91 7.36937 120.914 7.92484 120.885 8.49701C120.854 9.06917 120.804 9.6292 120.73 10.1756C120.656 10.7219 120.574 11.2501 120.483 11.7585C120.392 12.2669 120.308 12.7283 120.234 13.1457" fill="white"/>
<path d="M135 20.6218C134.291 20.5808 133.62 20.5368 132.948 20.5034C132.089 20.4609 131.228 20.426 130.368 20.388C130.138 20.3774 129.909 20.3713 129.679 20.3638C129.593 20.3607 129.447 20.3638 129.447 20.3638C129.447 20.3638 129.436 20.209 129.428 20.1331C129.35 19.3499 129.24 18.5699 129.16 17.7867C129.139 17.5803 129.083 17.4893 128.892 17.462C128.191 17.3603 127.492 17.2449 126.783 17.1326C126.665 17.1129 126.549 17.1842 126.512 17.2965C126.269 18.063 126.118 18.5258 125.862 19.3287C124.003 18.884 122.027 18.4075 120.158 17.9613C120.337 17.4559 120.17 17.9431 120.354 17.4498C121.275 14.9745 122.532 11.9437 123.475 9.48046C124.276 7.3891 124.688 6.70007 125.496 4.61023C125.616 4.29758 125.89 4.13216 126.12 4.09877C128.322 3.78157 133.067 5.27497 133.229 6.34949C133.412 7.5606 133.564 8.77626 133.728 9.99041C133.865 11.0148 134 12.0408 134.13 13.0667C134.29 14.3279 134.452 15.5876 134.596 16.8518C134.74 18.0948 134.863 19.3424 134.998 20.6218M129.12 13.4978C128.999 12.1743 128.911 10.9268 128.794 9.6383C128.792 9.62161 128.795 9.56697 128.738 9.56242C128.689 9.55787 128.677 9.60643 128.672 9.62161C128.282 10.8388 127.899 12.0347 127.5 13.2792C127.467 13.3779 127.534 13.4826 127.637 13.4993C128.096 13.5706 128.533 13.6328 128.992 13.7102C129.106 13.73 129.133 13.6207 129.122 13.4993L129.12 13.4978Z" fill="white"/>
<path d="M86.0951 9.83864C85.9456 12.5052 84.8458 14.6558 82.6938 16.2266C81.2582 17.2753 79.6438 17.7989 77.8785 17.8778C75.4139 17.9871 73.2141 17.3071 71.3795 15.5982C70.0902 14.3978 69.2938 12.9165 69.1074 11.1287C68.8533 8.68065 69.6789 6.62419 71.3549 4.90162C73.0031 3.20789 75.0426 2.40807 77.364 2.23506C79.0662 2.10909 80.7067 2.30032 82.2548 3.0455C83.8969 3.83773 85.0229 5.1232 85.6391 6.85943C85.9795 7.82012 86.1166 8.81269 86.0951 9.83712M77.4641 12.9302C79.1201 12.8679 80.2862 11.6583 80.1645 10.0086C80.0536 8.51067 79.0677 7.49686 77.6444 7.50596C76.0162 7.51659 74.7777 8.72162 74.8855 10.2044C75.0041 11.8389 76.0993 12.9423 77.4641 12.9317" fill="white"/>
<path d="M36.3337 2.30183C38.0974 2.32763 39.8181 2.67518 41.4386 3.42795C42.5846 3.96066 43.5982 4.67852 44.3715 5.68778C45.0216 6.53616 45.4529 7.48168 45.6146 8.53495C45.8981 10.3941 45.5022 12.1227 44.544 13.733C43.6183 15.2871 42.2843 16.3965 40.6237 17.1235C39.8073 17.4802 38.9462 17.6942 38.0512 17.7913C36.4692 17.9628 34.9396 17.7533 33.4562 17.2131C32.1561 16.738 30.9946 16.0277 30.0087 15.064C28.8349 13.9166 28.037 12.5538 27.7305 10.942C27.5102 9.77945 27.6088 8.63208 28.0216 7.51507C28.6516 5.80464 29.8146 4.5389 31.3812 3.61159C32.8154 2.76321 34.3804 2.36558 36.041 2.30032C36.1288 2.29728 36.2181 2.30032 36.3337 2.30032M36.4384 7.52721C34.7871 7.53632 33.698 8.67306 33.7319 10.1224C33.7719 11.801 34.9473 12.921 36.5909 12.8649C38.156 12.8118 39.3405 11.5809 39.2635 9.94336C39.1973 8.52129 38.0774 7.4923 36.4384 7.52721Z" fill="#F9AE28"/>
<path d="M15.3563 17.383C15.0436 12.0089 14.7309 6.65303 14.4167 1.27285C19.1442 0.74014 23.8594 0.538288 28.6131 0.646044C28.419 2.09695 28.2296 3.51143 28.0416 4.90769C25.9405 4.99572 23.8548 5.08223 21.7645 5.16873C21.7213 5.68019 21.6828 6.14157 21.6428 6.6166H25.9559C25.8188 7.79129 25.6817 8.96142 25.5431 10.1513C24.1583 10.1938 22.7719 10.2348 21.3532 10.2788C21.3162 10.8509 21.2808 11.3958 21.2438 11.9755H27.0542C26.8678 13.6905 26.6891 15.3539 26.5074 17.0294C22.7965 16.9247 19.0903 17.0279 15.3548 17.383" fill="#F9AE28"/>
<path d="M7.88998 3.45527C7.88998 3.48563 7.91617 9.96612 8.29049 13.1715C10.1544 12.9271 12.0013 12.6858 13.8822 12.4399C13.8591 14.1352 13.836 15.7864 13.8113 17.4422C10.1636 18.0159 6.57139 18.8051 2.96529 19.8189C1.98405 14.9502 0.00616164 5.15811 0 5.12776C1.35094 4.7878 2.23822 4.46908 3.86951 4.14582C5.15113 3.89236 6.94263 3.58276 7.89152 3.45679L7.88998 3.45527Z" fill="#F9AE28"/>
<path d="M47.9283 13.607C47.7496 13.2443 47.5602 12.9119 47.4169 12.5598C46.8793 11.2303 47.3522 10.2226 48.7494 9.82194C50.1311 9.42583 51.4543 9.60643 52.642 10.4366C53.2643 10.8707 53.7187 11.4413 53.8497 12.2153C53.9544 12.8391 53.7095 13.3202 53.2304 13.7011C52.8083 14.0365 52.3139 14.2354 51.8025 14.4008C51.5976 14.4676 51.3942 14.5404 51.1509 14.6239C51.4636 15.0246 51.7609 15.407 52.0967 15.838C52.3123 15.6468 52.5033 15.4677 52.7051 15.3023C52.7282 15.2841 52.8099 15.2143 52.8099 15.2143C52.8099 15.2143 52.873 15.2477 52.8946 15.2598C53.5339 15.6331 54.8432 16.3996 54.8833 16.4648C54.4258 16.8412 53.9328 17.2464 53.4538 17.6426C53.7526 18.0326 54.0622 18.4363 54.3888 18.8643C53.674 19.1132 52.9901 19.353 52.2877 19.5973C52.0689 19.3074 51.841 19.0206 51.633 18.7201C51.5483 18.5987 51.4821 18.5714 51.3342 18.6169C50.3129 18.9295 49.2654 19.0358 48.2148 18.8446C47.1273 18.6473 46.1569 18.198 45.4175 17.3436C44.6781 16.4891 44.7643 15.4662 45.6362 14.7423C46.2293 14.2505 46.9132 13.944 47.6387 13.7102C47.7389 13.6784 47.8374 13.6389 47.9314 13.6055M49.82 16.6591C49.5873 16.181 49.3886 15.7713 49.1622 15.3038C48.8556 15.5527 48.5753 15.7652 48.315 15.9974C48.0931 16.1962 48.0438 16.4664 48.1548 16.6819C48.2641 16.8943 48.5245 17.0431 48.8002 16.9808C49.1345 16.905 49.4579 16.776 49.8215 16.6591M49.9771 12.9848C50.3421 12.7647 50.6672 12.5356 50.8705 12.1804C50.9722 12.0028 51.0307 11.8071 50.8859 11.6249C50.7272 11.4261 50.5085 11.3336 50.2528 11.373C50.0294 11.4079 49.8816 11.543 49.8184 11.7646C49.6998 12.1835 49.8045 12.5705 49.9755 12.9848" fill="#F9AE28"/>
<path d="M36.1596 22.2654L33.4146 23.6905L34.1309 26.9308L32.3517 26.2357L31.6678 24.2581L31.0239 25.6468L29.5697 24.9563L31.6416 20.2044L33.2559 21.0224L32.4934 22.528L34.2649 21.4853L36.1596 22.2654Z" fill="white"/>
<path d="M38.461 23.0895L36.4184 27.7594L34.9134 27.254L36.4985 22.4096L38.461 23.0895Z" fill="white"/>
<path d="M42.617 26.6576C42.5246 26.9687 42.3305 27.3071 42.1302 27.5773C41.6311 28.2527 41.0242 28.4151 40.7623 28.4727C40.4989 28.5304 40.2232 28.5592 39.9336 28.5562C39.644 28.5547 39.3452 28.5243 39.0371 28.4682C38.729 28.412 38.4194 28.3331 38.1097 28.2314C37.9942 28.1935 37.8818 28.154 37.7724 28.113C37.663 28.0721 37.5521 28.0265 37.4397 27.978L39.0987 23.4371C39.3944 23.4538 39.6902 23.4947 39.9875 23.5585C40.2848 23.6222 40.5744 23.7011 40.8578 23.7937C41.2106 23.9091 41.5187 24.0593 41.7852 24.2445C42.0517 24.4296 42.2627 24.6406 42.4214 24.8773C42.58 25.1141 42.6771 25.3736 42.7156 25.6529C42.7541 25.9336 42.6986 26.3798 42.617 26.6561V26.6576ZM41.1012 26.2691C41.1397 26.1264 41.1536 25.9837 41.1428 25.8426C41.132 25.7014 41.0904 25.5694 41.0165 25.4465C40.9426 25.3251 40.8378 25.2173 40.7023 25.1232C40.5652 25.0306 40.3926 24.9593 40.1847 24.9122L39.3713 27.3421C39.5839 27.3603 39.7842 27.3451 39.9736 27.298C40.1631 27.251 40.3326 27.1812 40.4835 27.0871C40.6345 26.993 40.7623 26.8807 40.8655 26.7502C40.9687 26.6181 41.0427 26.477 41.0874 26.3237L41.1012 26.2675V26.2691Z" fill="white"/>
<path d="M46.79 28.4833C46.7206 28.7838 46.5974 29.0327 46.4203 29.23C46.2431 29.4273 46.029 29.5761 45.7779 29.6762C45.5268 29.7764 45.2465 29.8326 44.9384 29.8417C44.6303 29.8508 44.3099 29.8189 43.9756 29.743C43.8462 29.7142 43.7091 29.6687 43.5613 29.6049C43.4134 29.5427 43.267 29.4714 43.1192 29.394C42.9713 29.3166 42.8296 29.2361 42.6955 29.1542C42.5615 29.0722 42.4429 28.9963 42.3397 28.9265L42.8265 27.6092C43.0237 27.7716 43.2516 27.9112 43.5104 28.0311C43.7692 28.1495 44.0295 28.239 44.293 28.2982C44.3423 28.3088 44.4039 28.321 44.4763 28.3346C44.5487 28.3468 44.618 28.3528 44.6858 28.3498C44.7535 28.3483 44.8136 28.3346 44.866 28.3118C44.9184 28.2891 44.9523 28.2466 44.9661 28.1859C44.9754 28.1449 44.9677 28.1054 44.943 28.069C44.9184 28.0326 44.8829 27.9992 44.8367 27.9689C44.7905 27.9385 44.7381 27.9127 44.6765 27.8884C44.6164 27.8641 44.5548 27.8429 44.4963 27.8262C44.4362 27.808 44.3808 27.7928 44.3284 27.7822C44.276 27.77 44.2344 27.7609 44.2021 27.7533C43.9756 27.7033 43.7769 27.6243 43.6075 27.5166C43.438 27.4088 43.2994 27.2813 43.1931 27.1356C43.0868 26.9884 43.016 26.826 42.9805 26.6485C42.9436 26.4709 42.9482 26.2873 42.9913 26.0991C43.0514 25.8395 43.1669 25.6225 43.3394 25.445C43.512 25.2674 43.7199 25.1308 43.9618 25.0337C44.2036 24.9365 44.4701 24.8804 44.7582 24.8637C45.0462 24.847 45.3358 24.8713 45.6254 24.9365C45.7548 24.9654 45.8857 24.9988 46.0213 25.0367C46.1569 25.0746 46.2893 25.1187 46.4203 25.1687C46.5512 25.2188 46.6775 25.2735 46.7992 25.3326C46.9209 25.3918 47.0349 25.4586 47.1396 25.5299L46.6806 26.8321C46.5127 26.741 46.3355 26.6576 46.1476 26.5802C45.9597 26.5028 45.7717 26.4421 45.5854 26.4011C45.5515 26.3935 45.5068 26.3844 45.4529 26.3738C45.399 26.3631 45.342 26.354 45.2804 26.3465C45.2203 26.3389 45.1587 26.3328 45.0955 26.3313C45.0324 26.3282 44.9754 26.3313 44.923 26.3389C44.8706 26.3465 44.8275 26.3631 44.792 26.3874C44.7566 26.4117 44.735 26.4451 44.7273 26.4876C44.7181 26.5362 44.732 26.5802 44.7659 26.6196C44.7997 26.6591 44.8475 26.6925 44.9076 26.7244C44.9677 26.7547 45.037 26.782 45.1124 26.8063C45.1879 26.8306 45.265 26.8518 45.3404 26.8701C45.4159 26.8883 45.4868 26.9034 45.553 26.9171C45.6192 26.9308 45.6732 26.9444 45.7132 26.9581C45.9212 27.0158 46.1014 27.0962 46.2554 27.1979C46.4095 27.2996 46.5327 27.4149 46.6251 27.5469C46.7176 27.679 46.7776 27.8247 46.8069 27.984C46.8346 28.1434 46.8285 28.3119 46.7884 28.4864L46.79 28.4833Z" fill="white"/>
<path d="M55.0065 26.6803C55.005 26.8913 54.9665 27.078 54.8894 27.2389C54.8124 27.4012 54.7092 27.5424 54.5767 27.6638C54.4443 27.7852 54.2902 27.8869 54.1131 27.9704C53.9359 28.0538 53.7465 28.1221 53.5447 28.1737C53.3429 28.2253 53.1349 28.2633 52.9193 28.2861C52.7036 28.3088 52.4926 28.321 52.2846 28.3225L52.2738 29.9995L50.4592 29.9874C50.4623 29.4896 50.4669 28.8355 50.4746 28.3437C50.4808 27.8505 50.4885 27.3542 50.4977 26.8518C50.5054 26.5878 50.5085 26.3222 50.507 26.0581C50.507 25.7925 50.5147 25.5269 50.5316 25.2568C50.8643 25.1763 51.1971 25.1171 51.5298 25.0777C51.8625 25.0382 52.2045 25.02 52.5588 25.023C52.759 25.023 52.9578 25.0397 53.158 25.0686C53.3583 25.0974 53.5493 25.1414 53.731 25.2006C53.9144 25.2598 54.0823 25.3357 54.2394 25.4237C54.3965 25.5132 54.5305 25.618 54.6445 25.7409C54.7585 25.8638 54.8478 26.0019 54.9125 26.1583C54.9772 26.3146 55.0096 26.4876 55.008 26.6819L55.0065 26.6803ZM53.2766 26.779C53.2766 26.6379 53.2273 26.5271 53.1257 26.4481C53.024 26.3677 52.8915 26.3282 52.7267 26.3267C52.6728 26.3267 52.6158 26.3298 52.5573 26.3374C52.4987 26.3449 52.4433 26.354 52.3909 26.3631L52.337 27.3132C52.3739 27.3178 52.4078 27.3208 52.4417 27.3208C52.4756 27.3208 52.511 27.3208 52.5465 27.3208C52.6404 27.3208 52.7298 27.3087 52.8176 27.2844C52.9054 27.2586 52.9824 27.2222 53.0502 27.1736C53.118 27.125 53.1719 27.0689 53.2135 27.0021C53.2535 26.9368 53.2751 26.8625 53.2751 26.779H53.2766Z" fill="white"/>
<path d="M60.3302 29.2042L58.3862 29.5123L57.9502 28.5076L57.066 28.5866L56.8473 29.6762L54.8278 29.866L56.0617 24.8986L58.209 24.6193L60.3302 29.2042ZM57.7176 27.553L57.3171 26.4785L57.1354 27.6046L57.7176 27.553Z" fill="white"/>
<path d="M64.5278 24.7923C64.5663 24.9547 64.5848 25.105 64.5832 25.2461C64.5817 25.3858 64.557 25.5193 64.5093 25.6468C64.4631 25.7743 64.3922 25.8972 64.2983 26.0171C64.2043 26.137 64.0857 26.2584 63.9424 26.3814L65.6523 27.94L63.753 28.4651L62.6192 26.9672L62.1525 27.0871L62.4667 28.7732L60.8339 29.1147C60.7322 28.6382 60.5628 27.8201 60.4611 27.3481C60.3594 26.8761 60.2578 26.3996 60.1592 25.923C60.1068 25.6832 60.0544 25.445 60.0021 25.2082C59.9497 24.9714 59.9035 24.7332 59.8603 24.4903C60.0236 24.3962 60.1884 24.3112 60.3517 24.2369C60.515 24.1625 60.6814 24.0957 60.8493 24.0365C61.0172 23.9774 61.1897 23.9242 61.3669 23.8757C61.544 23.8271 61.7258 23.7831 61.9122 23.7391C62.2002 23.6738 62.4867 23.6419 62.7717 23.6465C63.0567 23.6511 63.3186 23.6951 63.5573 23.7785C63.7961 23.862 64.0025 23.988 64.175 24.1549C64.3475 24.3219 64.4646 24.5359 64.5278 24.7954V24.7923ZM62.8534 25.2795C62.8318 25.1915 62.7979 25.1156 62.7517 25.0488C62.7055 24.9821 62.6469 24.9289 62.5776 24.8895C62.5083 24.85 62.4267 24.8242 62.3358 24.8136C62.2434 24.803 62.1401 24.8106 62.0277 24.8364C61.9769 24.8485 61.9291 24.8622 61.8814 24.8773C61.8351 24.894 61.7905 24.9122 61.7473 24.9335L61.9676 26.1082L62.0585 26.0869C62.1679 26.0626 62.2757 26.0262 62.382 25.9777C62.4883 25.9291 62.5822 25.8714 62.6593 25.8016C62.7378 25.7333 62.7964 25.6559 62.8349 25.5679C62.8734 25.4799 62.8811 25.3842 62.8549 25.2795H62.8534Z" fill="white"/>
<path d="M68.958 21.3806L68.1139 24.2354L70.9852 25.9852L69.2476 26.7092L67.3359 25.8229L67.8859 27.2039L66.4132 27.7397L64.4415 23.1017L66.1129 22.5431L66.6659 24.0851L67.1234 22.1607L68.9565 21.3821L68.958 21.3806Z" fill="white"/>
</svg>
