<svg width="16" height="16" viewBox="0 0 16 16" fill="none" xmlns="http://www.w3.org/2000/svg">
<path d="M9.156 14.5435C10.899 13.0095 14 9.87551 14 6.99951C14 5.40821 13.3679 3.88209 12.2426 2.75687C11.1174 1.63165 9.5913 0.999512 8 0.999512C6.4087 0.999512 4.88258 1.63165 3.75736 2.75687C2.63214 3.88209 2 5.40821 2 6.99951C2 9.87551 5.1 13.0095 6.844 14.5435C7.16211 14.8275 7.5736 14.9844 8 14.9844C8.4264 14.9844 8.83789 14.8275 9.156 14.5435ZM6 6.99951C6 6.46908 6.21071 5.96037 6.58579 5.5853C6.96086 5.21023 7.46957 4.99951 8 4.99951C8.53043 4.99951 9.03914 5.21023 9.41421 5.5853C9.78929 5.96037 10 6.46908 10 6.99951C10 7.52994 9.78929 8.03865 9.41421 8.41372C9.03914 8.7888 8.53043 8.99951 8 8.99951C7.46957 8.99951 6.96086 8.7888 6.58579 8.41372C6.21071 8.03865 6 7.52994 6 6.99951Z" fill="#1084FD"/>
</svg>
