<svg width="16" height="16" viewBox="0 0 16 16" fill="none" xmlns="http://www.w3.org/2000/svg">
<path d="M5.16739 1.66748C5.16739 1.53487 5.11471 1.4077 5.02094 1.31393C4.92717 1.22016 4.79999 1.16748 4.66739 1.16748C4.53478 1.16748 4.4076 1.22016 4.31383 1.31393C4.22006 1.4077 4.16739 1.53487 4.16739 1.66748V2.72081C3.20739 2.79748 2.57805 2.98548 2.11539 3.44881C1.65205 3.91148 1.46405 4.54148 1.38672 5.50081H14.6147C14.5374 4.54081 14.3494 3.91148 13.8861 3.44881C13.4234 2.98548 12.7934 2.79748 11.8341 2.72015V1.66748C11.8341 1.53487 11.7814 1.4077 11.6876 1.31393C11.5938 1.22016 11.4667 1.16748 11.3341 1.16748C11.2014 1.16748 11.0743 1.22016 10.9805 1.31393C10.8867 1.4077 10.8341 1.53487 10.8341 1.66748V2.67615C10.3907 2.66748 9.89338 2.66748 9.33405 2.66748H6.66739C6.10805 2.66748 5.61072 2.66748 5.16739 2.67615V1.66748Z" fill="#1084FD"/>
<path fill-rule="evenodd" clip-rule="evenodd" d="M1.33203 7.99951C1.33203 7.44018 1.33203 6.94285 1.3407 6.49951H14.6567C14.6654 6.94285 14.6654 7.44018 14.6654 7.99951V9.33285C14.6654 11.8468 14.6654 13.1042 13.884 13.8848C13.1027 14.6655 11.846 14.6662 9.33203 14.6662H6.66536C4.15136 14.6662 2.89403 14.6662 2.11336 13.8848C1.3327 13.1035 1.33203 11.8468 1.33203 9.33285V7.99951ZM11.332 9.33285C11.5088 9.33285 11.6784 9.26261 11.8034 9.13758C11.9285 9.01256 11.9987 8.84299 11.9987 8.66618C11.9987 8.48937 11.9285 8.3198 11.8034 8.19477C11.6784 8.06975 11.5088 7.99951 11.332 7.99951C11.1552 7.99951 10.9857 8.06975 10.8606 8.19477C10.7356 8.3198 10.6654 8.48937 10.6654 8.66618C10.6654 8.84299 10.7356 9.01256 10.8606 9.13758C10.9857 9.26261 11.1552 9.33285 11.332 9.33285ZM11.332 11.9995C11.5088 11.9995 11.6784 11.9293 11.8034 11.8043C11.9285 11.6792 11.9987 11.5097 11.9987 11.3328C11.9987 11.156 11.9285 10.9865 11.8034 10.8614C11.6784 10.7364 11.5088 10.6662 11.332 10.6662C11.1552 10.6662 10.9857 10.7364 10.8606 10.8614C10.7356 10.9865 10.6654 11.156 10.6654 11.3328C10.6654 11.5097 10.7356 11.6792 10.8606 11.8043C10.9857 11.9293 11.1552 11.9995 11.332 11.9995ZM8.66536 8.66618C8.66536 8.84299 8.59513 9.01256 8.4701 9.13758C8.34508 9.26261 8.17551 9.33285 7.9987 9.33285C7.82189 9.33285 7.65232 9.26261 7.52729 9.13758C7.40227 9.01256 7.33203 8.84299 7.33203 8.66618C7.33203 8.48937 7.40227 8.3198 7.52729 8.19477C7.65232 8.06975 7.82189 7.99951 7.9987 7.99951C8.17551 7.99951 8.34508 8.06975 8.4701 8.19477C8.59513 8.3198 8.66536 8.48937 8.66536 8.66618ZM8.66536 11.3328C8.66536 11.5097 8.59513 11.6792 8.4701 11.8043C8.34508 11.9293 8.17551 11.9995 7.9987 11.9995C7.82189 11.9995 7.65232 11.9293 7.52729 11.8043C7.40227 11.6792 7.33203 11.5097 7.33203 11.3328C7.33203 11.156 7.40227 10.9865 7.52729 10.8614C7.65232 10.7364 7.82189 10.6662 7.9987 10.6662C8.17551 10.6662 8.34508 10.7364 8.4701 10.8614C8.59513 10.9865 8.66536 11.156 8.66536 11.3328ZM4.66536 9.33285C4.84218 9.33285 5.01174 9.26261 5.13677 9.13758C5.26179 9.01256 5.33203 8.84299 5.33203 8.66618C5.33203 8.48937 5.26179 8.3198 5.13677 8.19477C5.01174 8.06975 4.84218 7.99951 4.66536 7.99951C4.48855 7.99951 4.31898 8.06975 4.19396 8.19477C4.06894 8.3198 3.9987 8.48937 3.9987 8.66618C3.9987 8.84299 4.06894 9.01256 4.19396 9.13758C4.31898 9.26261 4.48855 9.33285 4.66536 9.33285ZM4.66536 11.9995C4.84218 11.9995 5.01174 11.9293 5.13677 11.8043C5.26179 11.6792 5.33203 11.5097 5.33203 11.3328C5.33203 11.156 5.26179 10.9865 5.13677 10.8614C5.01174 10.7364 4.84218 10.6662 4.66536 10.6662C4.48855 10.6662 4.31898 10.7364 4.19396 10.8614C4.06894 10.9865 3.9987 11.156 3.9987 11.3328C3.9987 11.5097 4.06894 11.6792 4.19396 11.8043C4.31898 11.9293 4.48855 11.9995 4.66536 11.9995Z" fill="#1084FD"/>
</svg>
