<svg width="147" height="145" viewBox="0 0 147 145" fill="none" xmlns="http://www.w3.org/2000/svg">
<path d="M39.6064 111.368C35.4512 117.442 26.5715 120.637 21.9998 120.545C14.5005 120.375 5.80747 116.245 4.45877 107.598C3.97453 104.502 4.76315 101.329 6.74599 98.43C10.0676 93.5742 16.5278 89.8355 22.8027 89.141C32.7 88.0244 38.7743 92.1795 41.3582 101.834C42.2437 105.095 41.6397 108.395 39.5937 111.386L39.6064 111.368Z" fill="#E1ECF8"/>
<path d="M94.5863 32.4907C93.639 33.8755 92.5198 35.1155 91.2354 36.1611C88.4907 38.4303 85.2659 39.3411 81.9164 38.7303C76.957 37.8583 72.0622 33.6428 69.7315 28.2542C66.6223 21.0322 67.2036 14.4374 71.5355 8.10455C72.5838 6.57211 73.874 5.04255 75.3624 3.54018C78.1692 0.744373 81.465 -0.388968 84.9378 0.27914C91.2091 1.45219 96.2061 8.01426 97.396 12.2972C98.8657 17.5577 99.0008 25.9976 94.5678 32.4781L94.5863 32.4907Z" fill="#E1ECF8"/>
<path d="M61.3375 47.0656C59.5188 49.7242 56.7867 51.46 53.4413 52.0715C47.4035 53.1721 40.3557 50.5193 37.0312 47.2967C31.1491 41.5927 26.478 31.107 30.1722 21.5464C30.5821 20.4716 31.1028 19.4727 31.7217 18.568C33.5656 15.8724 36.287 13.9938 39.5789 13.1831C44.6382 11.9281 50.8454 13.2741 55.4282 16.5986C63.9232 22.7619 66.4699 31.3609 63.2366 42.8629C62.7898 44.4273 62.1399 45.8528 61.319 47.0529L61.3375 47.0656Z" fill="#E1ECF8"/>
<path d="M40.1399 77.0677C35.4669 83.899 24.4231 84.9089 18.416 83.4287C16.461 82.9587 11.4412 81.4221 7.06146 77.7215C2.8722 74.1783 0.740825 69.7662 0.866588 64.9467C0.957468 60.9707 1.93458 57.6008 3.76586 54.9237C7.13795 49.994 13.196 47.7147 20.8179 48.5378C29.9147 49.5026 43.0011 57.2346 42.2379 70.7516C42.0983 73.0953 41.4028 75.2213 40.1399 77.0677Z" fill="#E1ECF8"/>
<path d="M67.7091 52.8068C61.178 56.2531 49.6079 69.6411 49.7082 88.2747C49.8412 112.487 61.6864 134.276 77.2932 141.889C92.9059 149.533 107.86 135.913 111.925 125.928C116.003 115.926 118.478 112.387 127.928 108.2C137.378 104.013 149.081 89.8763 146.519 79.9121C143.958 69.948 138.098 52.0087 104.64 47.0367C84.5597 44.0608 74.2403 49.3605 67.7091 52.8068Z" fill="#E1ECF8"/>
</svg>
