<svg width="125" height="126" viewBox="0 0 125 126" fill="none" xmlns="http://www.w3.org/2000/svg">
<rect width="103.996" height="103.918" rx="51.9592" transform="matrix(0.974411 0.224774 -0.225128 0.974329 23.3945 0.98291)" fill="#83DB33"/>
<path d="M46.2399 77.7922C44.4637 75.9675 41.4427 75.2128 38.2083 78.2655C34.9739 81.3287 35.9307 84.7898 34.6854 88.7128C33.9617 90.9785 36.3554 89.9502 37.4405 89.7297C40.5575 89.0894 41.7169 89.4354 44.3979 87.8931C46.547 86.6551 49.0685 84.2318 48.5371 81.5992C48.0056 78.9667 46.2293 77.7922 46.2293 77.7922L46.2399 77.7922Z" fill="white"/>
<path d="M67.621 83.8825C71.1427 80.5465 71.686 75.9524 71.6651 73.2778C71.7184 72.9316 71.8035 72.6379 71.9206 72.3547C72.1228 71.9981 72.41 71.7358 72.6867 71.4211C72.8675 71.2742 73.1122 71.0854 73.325 70.9176C76.1337 69.0606 80.9001 65.3154 85.1775 58.99C91.6043 49.4862 90.2977 38.1377 90.1914 37.6343C90.1383 37.393 89.9043 37.0679 89.7235 36.9211C89.532 36.7743 89.3618 36.7009 89.1172 36.659C88.6385 36.5752 77.1712 34.6471 67.277 40.5853C60.6383 44.5721 56.6165 49.1563 54.6374 51.8417C54.2544 52.2613 54.0948 52.4606 53.882 52.6285C53.7011 52.7754 53.5096 52.9327 53.0841 53.1006C52.7224 53.1951 52.2756 53.2476 51.8713 53.2896C49.1268 53.2061 44.6907 53.6579 41.3287 56.847C36.4238 61.4838 34.4975 66.9487 34.423 67.1794C34.2953 67.5571 34.3697 67.9661 34.6143 68.2702C34.6356 68.2912 34.6568 68.3227 34.6781 68.3436C34.9334 68.6058 35.2844 68.7316 35.6567 68.6896C35.6993 68.6896 40.3588 68.1644 43.0288 68.4577L43.2948 68.4891C44.1032 68.5729 44.8372 68.6566 45.3691 68.73C45.103 69.3698 44.8157 70.0831 44.7092 70.6915L44.7092 70.7859C44.4856 72.0131 44.4642 73.1878 46.3042 75.086L49.3461 78.2111C51.1861 80.1092 52.3776 80.13 53.6329 79.9725L53.7286 79.9725C54.3456 79.8885 55.0903 79.6261 55.7393 79.3953C55.7924 79.9197 55.8454 80.6539 55.8985 81.451L55.9197 81.7132C56.1108 84.3563 55.3867 88.919 55.3866 88.961C55.3334 89.3176 55.4504 89.6742 55.695 89.9364C55.7163 89.9573 55.7482 89.9783 55.7694 90.0098C56.0673 90.272 56.4821 90.3558 56.8757 90.2508C57.1098 90.1774 62.7375 88.5088 67.6317 83.872L67.621 83.8825ZM68.721 57.7655C65.6258 54.8187 65.403 51.4729 68.1161 48.7454C71.1058 45.7451 75.7333 45.5136 78.6157 48.2297C81.1152 50.5893 80.8275 53.9352 77.8697 56.9249C74.7097 60.114 71.5077 60.4082 68.7316 57.7655L68.721 57.7655Z" fill="white"/>
</svg>
