<svg width="1824" height="707" viewBox="0 0 1824 707" fill="none" xmlns="http://www.w3.org/2000/svg">
<path d="M773.048 603.868C730.868 571.985 685.301 538.847 632.037 549.391C593.859 556.922 568.612 585.541 543.674 610.646C483.944 670.645 391.885 722.863 300.751 702.528C244.408 689.976 202.228 652.319 164.973 615.416C94.7754 546.128 28.5802 470.312 4.56509 382.698C-28.3787 262.447 121.254 -14.2034 315.53 100.273C375.26 135.419 410.975 208.473 484.867 208.473C511.346 208.473 536.592 197.929 557.836 185.126C604.943 156.758 639.118 116.591 683.146 84.9591C727.174 53.3275 788.443 30.2314 843.554 46.0472C913.444 65.8797 944.541 138.934 1014.74 158.013C1089.56 178.599 1162.52 129.645 1226.56 91.9883C1374.97 4.37384 1582.48 -34.538 1742.89 37.7627C1820.78 72.9089 1879.9 129.896 1935.01 186.883C1962.41 215.251 1989.81 244.623 2003.36 279.016C2039.69 372.154 1956.56 475.835 1845.11 512.488C1733.96 548.889 1606.19 531.818 1494.42 496.923C1410.37 470.563 1317.39 434.162 1234.57 463.534C1124.65 502.446 1098.79 637.257 984.258 666.88C919.91 683.7 849.096 658.846 798.295 622.696C789.982 616.671 781.669 610.395 773.048 603.868Z" fill="#EEF4FA"/>
</svg>
