<svg width="1846" height="850" viewBox="0 0 1846 850" fill="none" xmlns="http://www.w3.org/2000/svg">
<path d="M930.194 726.004C879.439 687.673 824.609 647.832 760.518 660.509C714.579 669.563 684.2 703.971 654.192 734.153C582.32 806.288 471.548 869.067 361.888 844.62C294.091 829.529 243.337 784.255 198.509 739.888C114.041 656.585 34.39 565.435 5.49309 460.099C-34.1475 315.527 145.903 -17.0802 379.671 120.55C451.543 162.805 494.518 250.635 583.431 250.635C615.292 250.635 645.671 237.959 671.233 222.566C727.916 188.46 769.039 140.169 822.016 102.139C874.994 64.1097 948.718 36.3422 1015.03 55.3569C1099.13 79.2008 1136.55 167.031 1221.02 189.969C1311.04 214.719 1398.84 155.863 1475.9 110.59C1654.47 5.2546 1904.17 -41.5277 2097.18 45.3968C2190.91 87.6518 2262.05 156.165 2328.36 224.679C2361.33 258.784 2394.3 294.098 2410.6 335.447C2454.32 447.423 2354.29 572.075 2220.18 616.141C2086.44 659.905 1932.69 639.381 1798.21 597.428C1697.07 565.737 1585.19 521.973 1485.53 557.286C1353.27 604.068 1322.15 766.146 1184.34 801.761C1106.91 821.983 1021.7 792.103 960.573 748.641C950.57 741.397 940.567 733.851 930.194 726.004Z" fill="#EEF4FA"/>
<rect width="103.996" height="103.918" rx="51.9592" transform="matrix(0.974411 0.224774 -0.225128 0.974329 356.395 51.9829)" fill="#83DB33"/>
<path d="M379.24 128.792C377.464 126.967 374.443 126.213 371.208 129.266C367.974 132.329 368.931 135.79 367.685 139.713C366.962 141.978 369.355 140.95 370.44 140.73C373.557 140.089 374.717 140.435 377.398 138.893C379.547 137.655 382.069 135.232 381.537 132.599C381.006 129.967 379.229 128.792 379.229 128.792L379.24 128.792Z" fill="white"/>
<path d="M400.621 134.882C404.143 131.547 404.686 126.952 404.665 124.278C404.718 123.932 404.804 123.638 404.921 123.355C405.123 122.998 405.41 122.736 405.687 122.421C405.868 122.274 406.112 122.085 406.325 121.918C409.134 120.061 413.9 116.315 418.178 109.99C424.604 100.486 423.298 89.1377 423.191 88.6343C423.138 88.393 422.904 88.0679 422.723 87.9211C422.532 87.7743 422.362 87.7009 422.117 87.659C421.638 87.5752 410.171 85.6471 400.277 91.5853C393.638 95.5721 389.616 100.156 387.637 102.842C387.254 103.261 387.095 103.461 386.882 103.628C386.701 103.775 386.51 103.933 386.084 104.101C385.722 104.195 385.276 104.248 384.871 104.29C382.127 104.206 377.691 104.658 374.329 107.847C369.424 112.484 367.497 117.949 367.423 118.179C367.295 118.557 367.37 118.966 367.614 119.27C367.636 119.291 367.657 119.323 367.678 119.344C367.933 119.606 368.284 119.732 368.657 119.69C368.699 119.69 373.359 119.164 376.029 119.458L376.295 119.489C377.103 119.573 377.837 119.657 378.369 119.73C378.103 120.37 377.816 121.083 377.709 121.691L377.709 121.786C377.486 123.013 377.464 124.188 379.304 126.086L382.346 129.211C384.186 131.109 385.378 131.13 386.633 130.972L386.729 130.972C387.346 130.888 388.09 130.626 388.739 130.395C388.792 130.92 388.845 131.654 388.898 132.451L388.92 132.713C389.111 135.356 388.387 139.919 388.387 139.961C388.333 140.318 388.45 140.674 388.695 140.936C388.716 140.957 388.748 140.978 388.769 141.01C389.067 141.272 389.482 141.356 389.876 141.251C390.11 141.177 395.737 139.509 400.632 134.872L400.621 134.882ZM401.721 108.766C398.626 105.819 398.403 102.473 401.116 99.7454C404.106 96.7451 408.733 96.5136 411.616 99.2297C414.115 101.589 413.827 104.935 410.87 107.925C407.71 111.114 404.508 111.408 401.732 108.766L401.721 108.766Z" fill="white"/>
</svg>
