<svg width="126" height="126" viewBox="0 0 126 126" fill="none" xmlns="http://www.w3.org/2000/svg">
<rect x="23.8548" y="0.460449" width="104" height="104" rx="52" transform="rotate(13 23.8548 0.460449)" fill="#83DB33"/>
<path d="M47.5488 45.3841C44.9067 43.1337 43.8498 38.8107 44.1201 36.6714C44.5726 33.163 46.9417 29.2917 51.0636 29.089C52.5394 29.0158 53.9884 29.5433 55.2492 30.6172C57.3613 32.4162 58.7935 35.6316 58.8073 38.6087C58.8391 43.3056 56.5886 45.9477 51.9328 46.6795C50.3592 46.9327 48.8417 46.4854 47.5408 45.3773L47.5488 45.3841Z" fill="white"/>
<path d="M81.8044 75.0891C81.2021 74.5761 80.6762 73.9896 80.2497 73.3353C79.322 71.9354 79.0551 70.3778 79.508 68.8375C80.1635 66.555 82.3836 64.4691 85.0264 63.644C88.5677 62.5449 91.6315 63.1452 94.386 65.4914C95.0525 66.0592 95.7057 66.7402 96.3363 67.5129C97.5079 68.9681 97.8755 70.57 97.3896 72.1654C96.5278 75.048 93.2022 77.0653 91.1345 77.4104C88.5946 77.8382 84.63 77.482 81.8112 75.0811L81.8044 75.0891Z" fill="white"/>
<path d="M76.622 58.772C75.4656 57.787 74.7875 56.4195 74.6669 54.8202C74.4509 51.9341 76.0452 48.7609 77.7217 47.362C80.6889 44.8871 85.8384 43.2177 90.1383 45.4253C90.6219 45.6709 91.0645 45.9648 91.458 46.2999C92.6304 47.2986 93.3761 48.6682 93.5927 50.2522C93.9298 52.6872 92.9901 55.5312 91.2033 57.515C87.8908 61.1925 83.7317 61.9594 78.4985 59.8714C77.7871 59.5842 77.1509 59.2086 76.6289 58.7639L76.622 58.772Z" fill="white"/>
<path d="M63.6067 47.3395C60.6354 44.8086 60.7107 39.5794 61.7034 36.8359C62.021 35.9425 62.9911 33.6648 64.9441 31.7948C66.8139 30.0064 68.9889 29.2261 71.2428 29.5247C73.1028 29.7649 74.6346 30.3906 75.799 31.3824C77.9432 33.2088 78.711 36.163 77.9462 39.6964C77.0416 43.9144 72.7653 49.667 66.4644 48.6373C65.3723 48.4553 64.4098 48.0235 63.6067 47.3395Z" fill="white"/>
<path d="M73.6125 61.4739C72.321 58.2398 66.6177 52.1486 57.8745 51.2695C46.5136 50.1285 35.7068 54.6004 31.3609 61.5409C27.0001 68.4825 32.6443 76.1723 37.1244 78.575C41.6126 80.9845 43.1488 82.3207 44.6427 86.9604C46.1365 91.6001 52.1845 97.7909 56.9845 97.0849C61.7845 96.3789 70.4884 94.5223 74.483 79.0793C76.8765 69.8107 74.9041 64.708 73.6125 61.4739Z" fill="white"/>
</svg>
