<svg width="106" height="105" viewBox="0 0 106 105" fill="none" xmlns="http://www.w3.org/2000/svg">
<path d="M24.4517 72.68C20.4415 76.2723 13.5764 76.9956 10.3445 76.1339C5.04628 74.7065 -0.41001 70.2571 0.138172 63.8781C0.333445 61.5941 1.44659 59.4765 3.36027 57.7622C6.56598 54.8905 11.8069 53.3593 16.3859 53.959C23.6118 54.8898 27.2034 58.9005 27.3572 66.2105C27.4181 68.6825 26.4141 70.922 24.4395 72.6909L24.4517 72.68Z" fill="#EEF4FA"/>
<path d="M77.255 26.2145C76.3408 27.0334 75.3296 27.7195 74.235 28.2388C71.8897 29.373 69.44 29.4584 67.1668 28.4409C63.7953 26.9573 61.0522 23.1092 60.3352 18.8742C59.3844 13.2009 60.9463 8.61612 65.1271 4.87089C66.1388 3.96461 67.3219 3.10253 68.6411 2.2943C71.1222 0.796679 73.6611 0.565523 76.0119 1.64525C80.2629 3.57131 82.6699 9.10462 82.769 12.3552C82.8968 16.3491 81.5224 22.3697 77.2441 26.2023L77.255 26.2145Z" fill="#EEF4FA"/>
<path d="M51.0926 30.7772C49.3373 32.3495 47.094 33.1069 44.6107 32.9586C40.1295 32.6888 35.5846 29.576 33.7842 26.707C30.5989 21.6292 29.1071 13.3647 33.3972 7.21483C33.8756 6.5226 34.4196 5.9035 35.0169 5.36847C36.7965 3.7743 39.0571 2.91357 41.5371 2.91097C45.3501 2.90059 49.5254 4.93838 52.202 8.09903C57.1635 13.9584 57.4748 20.5121 53.1739 28.1217C52.584 29.1555 51.8739 30.0552 51.0817 30.765L51.0926 30.7772Z" fill="#EEF4FA"/>
<path d="M30.8052 48.4015C26.2953 52.4416 18.2734 51.2352 14.2636 49.137C12.9565 48.4624 9.65793 46.496 7.19107 43.1035C4.8321 39.8561 4.08652 36.3497 5.01548 32.9471C5.77272 30.1376 7.05396 27.9134 8.82137 26.3301C12.0758 23.4147 16.7768 22.8506 22.0483 24.7632C28.343 27.0335 36.2931 34.8074 33.3961 44.2791C32.8886 45.9201 32.0241 47.3096 30.8052 48.4015Z" fill="#EEF4FA"/>
<path d="M54.6191 35.9664C49.3787 37.2774 38.8265 44.7748 35.6515 58.0326C31.528 75.2599 36.1474 92.8061 45.9088 100.935C55.669 109.086 68.6661 102.013 73.2936 95.6268C77.9333 89.2296 80.3076 87.1466 87.7507 85.8178C95.1938 84.4889 105.971 76.4823 105.887 68.956C105.803 61.4296 104.765 47.6617 81.8612 38.3C68.1141 32.6873 59.8594 34.6553 54.6191 35.9664Z" fill="#EEF4FA"/>
</svg>
