<svg width="16" height="16" viewBox="0 0 16 16" fill="none" xmlns="http://www.w3.org/2000/svg">
<g clip-path="url(#clip0_1_206)">
<path d="M7.99964 5.33691C6.52542 5.33691 5.33691 6.53685 5.33691 7.99964C5.33691 9.46243 6.53685 10.6624 7.99964 10.6624C9.46243 10.6624 10.6624 9.46243 10.6624 7.99964C10.6624 6.53685 9.46243 5.33691 7.99964 5.33691ZM15.9993 7.99964C15.9993 6.89112 15.9993 5.80546 15.9421 4.69693C15.885 3.41699 15.5879 2.27418 14.6508 1.34851C13.7137 0.41141 12.5823 0.114281 11.3024 0.0571403C10.1938 -5.53447e-08 9.10816 0 7.99964 0C6.89112 0 5.80546 -5.53447e-08 4.69693 0.0571403C3.41699 0.114281 2.27418 0.41141 1.34851 1.34851C0.41141 2.28561 0.114281 3.41699 0.0571403 4.69693C-5.53447e-08 5.80546 0 6.89112 0 7.99964C0 9.10816 -5.53447e-08 10.1938 0.0571403 11.3024C0.114281 12.5823 0.41141 13.7251 1.34851 14.6508C2.28561 15.5879 3.41699 15.885 4.69693 15.9421C5.80546 15.9993 6.89112 15.9993 7.99964 15.9993C9.10816 15.9993 10.1938 15.9993 11.3024 15.9421C12.5823 15.885 13.7251 15.5879 14.6508 14.6508C15.5879 13.7137 15.885 12.5823 15.9421 11.3024C16.0107 10.2053 15.9993 9.10816 15.9993 7.99964ZM7.99964 12.1023C5.72546 12.1023 3.89697 10.2738 3.89697 7.99964C3.89697 5.72546 5.72546 3.89697 7.99964 3.89697C10.2738 3.89697 12.1023 5.72546 12.1023 7.99964C12.1023 10.2738 10.2738 12.1023 7.99964 12.1023ZM12.2737 4.68551C11.748 4.68551 11.3138 4.26267 11.3138 3.72555C11.3138 3.18843 11.7366 2.76559 12.2737 2.76559C12.8109 2.76559 13.2337 3.18843 13.2337 3.72555C13.2366 3.85073 13.2137 3.97517 13.1666 4.09115C13.1194 4.20713 13.0489 4.31219 12.9594 4.3998C12.8718 4.48926 12.7668 4.55976 12.6508 4.60694C12.5348 4.65412 12.4103 4.67697 12.2852 4.67408L12.2737 4.68551Z" fill="#22294F"/>
</g>
<defs>
<clipPath id="clip0_1_206">
<rect width="16" height="16" fill="white"/>
</clipPath>
</defs>
</svg>
