<svg width="16" height="16" viewBox="0 0 16 16" fill="none" xmlns="http://www.w3.org/2000/svg">
<path d="M9.15269 13.7025C9.86551 13.9977 10.6021 14.2265 11.353 14.387C12.7932 14.6948 14 13.4727 14 12V11.041C14 10.4292 13.5836 9.89589 12.9901 9.7475L10.6221 9.1555C10.3061 9.0765 10 9.31548 10 9.64117C10 10.0088 9.61768 10.2487 9.30007 10.0636C8.60801 9.66021 7.96923 9.16853 7.40035 8.59965C6.83147 8.03076 6.33979 7.39199 5.93641 6.69993C5.75129 6.38231 5.99119 5.99998 6.35883 5.99998C6.68452 5.99998 6.92349 5.69391 6.8445 5.37794L6.2525 3.00994C6.10411 2.41638 5.5708 1.99998 4.95898 1.99998H4.00001C2.52725 1.99998 1.30525 3.20677 1.61302 4.64701C1.77348 5.39793 2.00228 6.13449 2.29754 6.84731C2.9341 8.3841 3.86712 9.78046 5.04333 10.9567C6.21954 12.1329 7.6159 13.0659 9.15269 13.7025Z" fill="#000"/>
<path fill-rule="evenodd" clip-rule="evenodd" d="M8.21879 4.60769C8.31409 4.25204 8.67965 4.04099 9.03529 4.13628C9.71351 4.31801 10.3319 4.67507 10.8284 5.17156C11.3249 5.66805 11.682 6.28649 11.8637 6.96471C11.959 7.32035 11.748 7.68591 11.3923 7.78121C11.0367 7.8765 10.6711 7.66544 10.5758 7.3098C10.4547 6.85765 10.2166 6.44536 9.88563 6.11437C9.55464 5.78337 9.14234 5.54534 8.6902 5.42418C8.33455 5.32889 8.1235 4.96333 8.21879 4.60769Z" fill="#000"/>
<path fill-rule="evenodd" clip-rule="evenodd" d="M8.90898 2.03188C9.00427 1.67624 9.36983 1.46518 9.72547 1.56048C10.8558 1.86336 11.8866 2.45845 12.7141 3.28594C13.5415 4.11343 14.1366 5.14416 14.4395 6.27453C14.5348 6.63017 14.3238 6.99573 13.9681 7.09102C13.6125 7.18632 13.2469 6.97526 13.1516 6.61962C12.9093 5.71532 12.4332 4.89074 11.7713 4.22875C11.1093 3.56676 10.2847 3.09069 9.38038 2.84838C9.02474 2.75309 8.81368 2.38753 8.90898 2.03188Z" fill="#000"/>
</svg>
