<svg width="80" height="80" viewBox="0 0 80 80" fill="none" xmlns="http://www.w3.org/2000/svg">
<rect y="0.000976562" width="80" height="80" rx="40" fill="#1084FD"/>
<path d="M26.7579 51.8115C25.2988 50.3243 22.8173 49.7089 20.1611 52.1961C17.5049 54.6918 18.2913 57.5123 17.269 60.7089C16.6748 62.5551 18.6408 61.7175 19.532 61.538C22.0921 61.0166 23.0445 61.2987 25.2463 60.0422C27.0113 59.0337 29.0821 57.0593 28.6453 54.914C28.2084 52.7687 26.7492 51.8115 26.7492 51.8115H26.7579Z" fill="#58F8AC"/>
<path d="M44.3204 56.7772C47.2125 54.0592 47.6581 50.3156 47.6407 48.1361C47.6843 47.8541 47.7543 47.6148 47.8504 47.384C48.0164 47.0934 48.2523 46.8797 48.4795 46.6233C48.628 46.5037 48.829 46.3498 49.0037 46.2131C51.3104 44.7002 55.2248 41.649 58.7373 36.4951C64.0148 28.7515 62.9401 19.5037 62.8527 19.0934C62.809 18.8969 62.6168 18.6319 62.4683 18.5122C62.311 18.3926 62.1712 18.3328 61.9702 18.2986C61.577 18.2302 52.158 16.6575 44.032 21.4951C38.5798 24.743 35.277 28.478 33.6519 30.6661C33.3373 31.008 33.2062 31.1703 33.0315 31.3071C32.8829 31.4268 32.7257 31.555 32.3762 31.6917C32.0791 31.7686 31.7121 31.8114 31.3801 31.8456C29.1258 31.7772 25.4823 32.1447 22.7212 34.743C18.6932 38.5208 17.1117 42.9737 17.0505 43.1618C16.9457 43.4695 17.0068 43.8028 17.2078 44.0507C17.2253 44.0678 17.2428 44.0934 17.2602 44.1105C17.4699 44.3242 17.7583 44.4267 18.0641 44.3925C18.099 44.3925 21.9261 43.9652 24.1192 44.2045L24.3376 44.2302C25.0017 44.2985 25.6046 44.3669 26.0415 44.4267C25.823 44.9481 25.5871 45.5293 25.4997 46.025V46.1019C25.3162 47.1019 25.2988 48.0592 26.8104 49.6062L29.3093 52.1532C30.8209 53.7002 31.7995 53.7173 32.8305 53.5891H32.9092C33.4159 53.5207 34.0276 53.3071 34.5606 53.119C34.6042 53.5464 34.6479 54.1447 34.6916 54.7943L34.7091 55.0079C34.8664 57.1618 34.2722 60.8797 34.2722 60.9139C34.2285 61.2045 34.3246 61.4951 34.5256 61.7088C34.5431 61.7259 34.5693 61.743 34.5868 61.7686C34.8314 61.9823 35.1722 62.0507 35.4955 61.9652C35.6877 61.9054 40.3099 60.5464 44.3291 56.7686L44.3204 56.7772ZM45.2204 35.4951C42.6777 33.0934 42.4943 30.3669 44.7223 28.1447C47.1776 25.7003 50.9784 25.5122 53.3463 27.7259C55.3996 29.649 55.1637 32.3755 52.7346 34.8114C50.1396 37.4097 47.5096 37.649 45.2291 35.4951H45.2204Z" fill="#58F8AC"/>
</svg>
