<svg width="168" height="168" viewBox="0 0 168 168" fill="none" xmlns="http://www.w3.org/2000/svg">
<rect width="168" height="168" rx="84" fill="#1084FD"/>
<path d="M60.3946 104.937C57.7935 102.3 53.37 101.21 48.635 105.619C43.9 110.043 45.3018 115.043 43.4795 120.71C42.4203 123.982 45.9248 122.497 47.5136 122.179C52.0772 121.255 53.775 121.755 57.7 119.528C60.8463 117.74 64.5377 114.24 63.7589 110.437C62.9801 106.634 60.379 104.937 60.379 104.937H60.3946Z" fill="#BEECFF"/>
<path d="M91.7016 113.74C96.8571 108.921 97.6515 102.285 97.6203 98.4214C97.6982 97.9214 97.8228 97.4972 97.9941 97.0881C98.2901 96.5729 98.7106 96.1941 99.1156 95.7396C99.3804 95.5275 99.7386 95.2548 100.05 95.0123C104.162 92.3305 111.14 86.9214 117.401 77.7851C126.809 64.0578 124.893 47.6639 124.737 46.9366C124.66 46.5881 124.317 46.1184 124.052 45.9063C123.772 45.6942 123.523 45.5881 123.164 45.5275C122.463 45.4063 105.673 42.6185 91.1876 51.1942C81.4684 56.9518 75.5808 63.573 72.6837 67.4518C72.123 68.0578 71.8894 68.3457 71.5779 68.5881C71.3131 68.8002 71.0327 69.0275 70.4097 69.2699C69.8801 69.4063 69.226 69.4821 68.6341 69.5427C64.6156 69.4214 58.1205 70.073 53.1986 74.679C46.0183 81.376 43.1991 89.2699 43.0901 89.6032C42.9032 90.1487 43.0122 90.7396 43.3704 91.179C43.4016 91.2093 43.4327 91.2548 43.4639 91.2851C43.8377 91.6639 44.3517 91.8457 44.8968 91.7851C44.9591 91.7851 51.7813 91.0275 55.6907 91.4517L56.0801 91.4972C57.2639 91.6184 58.3386 91.7396 59.1174 91.8457C58.728 92.7699 58.3075 93.8002 58.1517 94.679V94.8154C57.8246 96.5881 57.7935 98.2851 60.488 101.027L64.9427 105.543C67.6372 108.285 69.3817 108.315 71.2196 108.088H71.3598C72.2632 107.967 73.3535 107.588 74.3036 107.255C74.3815 108.012 74.4594 109.073 74.5372 110.224L74.5684 110.603C74.8487 114.421 73.7896 121.012 73.7896 121.073C73.7117 121.588 73.8831 122.103 74.2413 122.482C74.2724 122.512 74.3192 122.543 74.3503 122.588C74.7864 122.967 75.3939 123.088 75.9702 122.937C76.3129 122.83 84.5524 120.421 91.7172 113.724L91.7016 113.74ZM93.3059 76.0124C88.7733 71.7548 88.4463 66.9215 92.4181 62.9821C96.7948 58.6487 103.57 58.3154 107.791 62.2396C111.451 65.6487 111.031 70.4821 106.701 74.8002C102.075 79.4063 97.3867 79.8305 93.3214 76.0124H93.3059Z" fill="#BEECFF"/>
</svg>
