<svg width="214" height="214" viewBox="0 0 214 214" fill="none" xmlns="http://www.w3.org/2000/svg">
<rect width="159.924" height="159.983" rx="79.9622" transform="matrix(0.905645 0.424037 -0.423854 0.905731 68.5613 0.576172)" fill="#B78CFF"/>
<path d="M137.439 102.226C138.658 102.597 140.2 103.328 140.218 104.794C140.23 106.094 138.335 107.399 137.084 108.276C135.007 109.722 100.16 131.894 89.1599 139.099C86.9134 140.563 82.4116 142.952 81.1126 142.246C79.1798 141.21 79.7151 138.965 80.4334 136.705C82.6599 129.717 89.7712 113.578 92.2069 108.001C92.7748 106.701 94.5164 104.563 92.8967 103.678C88.8026 101.448 81.5276 99.0476 78.7033 97.7248C76.6319 96.7565 76.2934 95.1109 78.0044 92.2763C82.3414 85.1058 90.0034 72.5902 93.0428 69.0329C97.1255 64.2779 96.5036 63.4408 102.4 65.1185C113.11 68.1861 122.929 71.4082 133.21 75.8329C138.193 77.9769 138.275 79.14 133.94 82.5576C129.573 85.9959 125.072 89.2815 120.716 92.7359C119.452 93.7347 117.241 95.3582 119.138 96.1096L137.455 102.215L137.439 102.226Z" fill="white"/>
</svg>
