<svg width="114" height="114" viewBox="0 0 114 114" fill="none" xmlns="http://www.w3.org/2000/svg">
<rect y="57.0347" width="80" height="80" rx="40" transform="rotate(-45 0 57.0347)" fill="#AE82F7"/>
<path d="M67.9898 43.9906C68.652 43.7163 69.5848 43.4849 70.1259 44.1304C70.6038 44.7038 70.2589 45.9672 70.0368 46.8083C69.6643 48.1998 62.6563 70.6232 60.5189 77.7933C60.0797 79.2544 59.0013 81.9396 58.1826 82.0942C56.9701 82.3311 56.3852 81.1401 55.8736 79.876C54.295 75.9667 51.5011 66.228 50.5262 62.8704C50.2992 62.0879 50.2748 60.5093 49.2523 60.6999C46.6706 61.1852 42.6507 62.7417 40.9481 63.1722C39.7 63.4888 38.955 62.8794 38.6641 61.0022C37.932 56.2506 36.694 47.9238 36.7148 45.2464C36.7513 41.6603 36.1779 41.5125 39.3386 40.1316C45.0863 37.6332 50.5055 35.5241 56.5615 33.7834C59.4963 32.9396 59.9551 33.4268 59.323 36.5095C58.6845 39.6129 57.933 42.6965 57.3049 45.8033C57.1219 46.7028 56.7558 48.2221 57.8496 47.8721L67.9929 43.9802L67.9898 43.9906Z" fill="#DDC9FF"/>
</svg>
