<svg width="765" height="468" viewBox="0 0 765 468" fill="none" xmlns="http://www.w3.org/2000/svg">
<path d="M448.922 385.426C467.434 369.608 487.33 353.258 506.693 362.046C520.574 368.33 527.885 385.868 535.358 401.4C553.266 438.528 584.046 472.961 620.208 466.271C642.563 462.146 661.532 443.06 678.573 424.139C710.664 388.627 741.753 349.208 757.781 300.877C779.772 234.543 744.892 70.004 662.185 124.533C636.76 141.27 617.447 180.738 589.429 176.828C579.389 175.427 570.649 168.122 563.606 159.75C547.986 141.197 538.201 116.649 524.006 96.4116C509.811 76.1743 488.404 59.8569 466.258 65.8946C438.191 73.4243 420.628 113.137 392.504 120.224C362.51 127.92 338.71 96.3443 317.403 71.637C268.055 14.1833 192.446 -18.8263 125.912 13.6178C93.5998 29.3935 66.6831 58.5278 41.2842 87.8739C28.6531 102.484 15.9427 117.663 8.08884 136.417C-13.0448 187.223 10.2842 250.319 49.6487 276.966C88.9164 303.455 138.713 300.552 183.847 286.71C217.799 276.235 255.931 260.547 285.014 281.558C323.616 309.403 322.772 387.092 363.859 409.923C386.929 422.85 415.743 412.527 437.861 394.749C441.489 391.778 445.137 388.665 448.922 385.426Z" fill="#EEF4FA"/>
</svg>
