<svg width="80" height="80" viewBox="0 0 80 80" fill="none" xmlns="http://www.w3.org/2000/svg">
<rect y="0.000976562" width="80" height="80" rx="40" fill="#42F29F"/>
<path d="M61.268 48.9621C58.5054 54.9229 48.8726 67.7111 32.7643 61.1996C16.5835 54.6557 17.1633 41.009 18.7661 34.6675C20.232 28.8606 22.9865 24.5277 27.674 21.0209C31.4998 18.1619 34.0127 17.433 36.8558 17.0686C39.9083 16.6717 39.4814 18.0567 37.5323 20.3082C36.0262 22.0413 29.454 31.266 34.061 40.2072C37.033 45.9655 43.4844 49.3023 48.4216 49.3266C54.1562 49.359 57.0718 47.6501 59.2222 46.3786C61.5096 45.0342 62.9433 45.3662 61.276 48.954L61.268 48.9621Z" fill="#B68DFC"/>
</svg>
