<svg width="16" height="16" viewBox="0 0 16 16" fill="none" xmlns="http://www.w3.org/2000/svg">
<path d="M1.0268 8.81293L12.4961 8.81293L7.48535 13.8237C7.0849 14.2242 7.0849 14.8813 7.48535 15.2818C7.58034 15.3769 7.69317 15.4525 7.81739 15.504C7.9416 15.5555 8.07476 15.582 8.20924 15.582C8.34372 15.582 8.47687 15.5555 8.60109 15.504C8.7253 15.4525 8.83814 15.3769 8.93313 15.2818L15.6997 8.51516C15.7949 8.42017 15.8704 8.30734 15.922 8.18312C15.9735 8.05891 16 7.92575 16 7.79127C16 7.65679 15.9735 7.52363 15.922 7.39942C15.8704 7.2752 15.7949 7.16237 15.6997 7.06738L8.93313 0.300788C8.83807 0.205726 8.72521 0.130319 8.60101 0.0788717C8.4768 0.0274239 8.34368 0.000944138 8.20924 0.000944138C8.0748 0.000944138 7.94168 0.0274239 7.81747 0.0788717C7.69326 0.130319 7.58041 0.205726 7.48535 0.300788C7.39028 0.395851 7.31488 0.508708 7.26343 0.632914C7.21198 0.757119 7.1855 0.890243 7.1855 1.02468C7.1855 1.15912 7.21198 1.29224 7.26343 1.41645C7.31488 1.54065 7.39028 1.65351 7.48535 1.74857L12.4961 6.75934L1.0268 6.75934C0.462058 6.75934 0 7.2214 0 7.78614C0 8.35087 0.462058 8.81293 1.0268 8.81293Z" fill="#1084FD"/>
</svg>
