<svg width="16" height="16" viewBox="0 0 16 16" fill="none" xmlns="http://www.w3.org/2000/svg">
<path d="M14.9732 7.18707L3.50389 7.18707L8.51465 2.1763C8.9151 1.77585 8.9151 1.1187 8.51465 0.718249C8.41966 0.623061 8.30683 0.547543 8.18261 0.496017C8.0584 0.444491 7.92524 0.417969 7.79076 0.417969C7.65628 0.417969 7.52313 0.444491 7.39891 0.496017C7.2747 0.547543 7.16186 0.623061 7.06687 0.718249L0.300281 7.48484C0.205093 7.57983 0.129575 7.69266 0.0780485 7.81688C0.0265224 7.94109 0 8.07425 0 8.20873C0 8.34321 0.0265224 8.47637 0.0780485 8.60058C0.129575 8.7248 0.205093 8.83763 0.300281 8.93262L7.06687 15.6992C7.16193 15.7943 7.27479 15.8697 7.39899 15.9211C7.5232 15.9726 7.65632 15.9991 7.79076 15.9991C7.9252 15.9991 8.05832 15.9726 8.18253 15.9211C8.30674 15.8697 8.41959 15.7943 8.51465 15.6992C8.60972 15.6041 8.68512 15.4913 8.73657 15.3671C8.78802 15.2429 8.8145 15.1098 8.8145 14.9753C8.8145 14.8409 8.78802 14.7078 8.73657 14.5836C8.68512 14.4593 8.60972 14.3465 8.51465 14.2514L3.50389 9.24066L14.9732 9.24066C15.5379 9.24066 16 8.7786 16 8.21386C16 7.64913 15.5379 7.18707 14.9732 7.18707Z" fill="white"/>
</svg>
