<svg width="221" height="221" viewBox="0 0 221 221" fill="none" xmlns="http://www.w3.org/2000/svg">
<rect x="154.645" width="168" height="168" rx="84" transform="rotate(67 154.645 0)" fill="#2DE38D"/>
<path d="M115.834 73.6744L103.648 89.5217C102.802 90.6215 101.484 91.2368 100.085 91.168L79.2104 90.2402C75.5905 90.084 73.4615 94.2049 75.6803 97.0649L87.5163 112.173C88.4455 113.365 88.6794 114.974 88.117 116.364L80.3903 135.435C79.034 138.77 82.2559 142.183 85.6973 141.06L106.869 134.174C108.145 133.751 109.539 133.971 110.645 134.74L130.654 148.714C133.73 150.862 137.876 148.331 137.302 144.628L133.951 123.028C133.753 121.702 134.176 120.368 135.129 119.427L149.048 105.433C151.539 102.937 150.025 98.6693 146.498 98.2458L130.609 96.2856C128.776 96.0545 127.301 94.6915 126.934 92.8931L123.392 75.4397C122.668 71.866 118.05 70.7758 115.817 73.6675L115.834 73.6744Z" fill="#107FF2"/>
</svg>
