<svg width="221" height="221" viewBox="0 0 221 221" fill="none" xmlns="http://www.w3.org/2000/svg">
<rect x="155" width="168" height="168" rx="84" transform="rotate(67 155 0)" fill="#2DE38D"/>
<path d="M98.8933 112.546C98.3324 101.752 99.6727 90.8558 102.845 80.4918C103.833 77.2851 105.385 73.7111 108.623 72.7112C112.862 71.3812 116.808 75.3436 119.01 79.1293C123.306 86.563 125.602 95.1429 125.56 103.741C128.992 99.7014 132.424 95.6621 135.856 91.6227C137.368 89.8566 139.185 87.9315 141.503 87.9223C145.286 87.9352 146.885 92.6866 147.05 96.4265C147.624 109.516 143.545 122.795 135.699 133.357C120.455 153.909 92.3704 140.724 77.0102 126.615C73.2043 123.125 69.6544 118.894 68.9615 113.808C68.2599 108.704 71.5535 102.773 76.7297 102.281C78.9332 102.067 81.1081 102.843 83.1459 103.679C88.7233 105.985 94.0101 108.955 98.876 112.508" fill="#107FF2"/>
</svg>
